<mxfile host="Electron" modified="2023-05-02T09:07:06.190Z" agent="Mozilla/5.0 (Windows NT 10.0; Win64; x64) AppleWebKit/537.36 (KHTML, like Gecko) draw.io/21.2.1 Chrome/112.0.5615.87 Electron/24.1.2 Safari/537.36" etag="SwRGtf0Wy-4uvyGjnIcG" version="21.2.1" type="device">
  <diagram name="Page-1" id="tqMP6LUTBTMePXm0T18Q">
    <mxGraphModel dx="2074" dy="1944" grid="1" gridSize="10" guides="1" tooltips="1" connect="1" arrows="1" fold="1" page="1" pageScale="1" pageWidth="850" pageHeight="1100" math="0" shadow="0">
      <root>
        <mxCell id="0" />
        <mxCell id="1" parent="0" />
        <mxCell id="499783Nn_EMZo8-6FfQs-1" value="Объект создать историю выполнить перевод" style="text;html=1;strokeColor=none;fillColor=none;align=center;verticalAlign=middle;whiteSpace=wrap;rounded=0;" parent="1" vertex="1">
          <mxGeometry x="40" y="-20" width="280" height="30" as="geometry" />
        </mxCell>
        <mxCell id="499783Nn_EMZo8-6FfQs-2" value="Текст наброски на русском&lt;br&gt;&lt;br&gt;Составленные предложения" style="rounded=0;whiteSpace=wrap;html=1;align=center;verticalAlign=top;" parent="1" vertex="1">
          <mxGeometry x="40" y="40" width="360" height="240" as="geometry" />
        </mxCell>
        <mxCell id="499783Nn_EMZo8-6FfQs-3" value="Сопутствующие слова, выражения&lt;br&gt;&lt;br&gt;Слова в облаке выражений" style="rounded=0;whiteSpace=wrap;html=1;align=center;verticalAlign=top;" parent="1" vertex="1">
          <mxGeometry x="720" width="360" height="240" as="geometry" />
        </mxCell>
        <mxCell id="499783Nn_EMZo8-6FfQs-4" value="link" style="rounded=0;whiteSpace=wrap;html=1;" parent="1" vertex="1">
          <mxGeometry x="500" y="40" width="120" height="60" as="geometry" />
        </mxCell>
        <mxCell id="499783Nn_EMZo8-6FfQs-5" value="" style="edgeStyle=entityRelationEdgeStyle;fontSize=12;html=1;endArrow=ERmany;rounded=0;exitX=1.003;exitY=0.175;exitDx=0;exitDy=0;exitPerimeter=0;entryX=0;entryY=0.5;entryDx=0;entryDy=0;" parent="1" source="499783Nn_EMZo8-6FfQs-2" target="499783Nn_EMZo8-6FfQs-4" edge="1">
          <mxGeometry width="100" height="100" relative="1" as="geometry">
            <mxPoint x="370" y="370" as="sourcePoint" />
            <mxPoint x="470" y="270" as="targetPoint" />
          </mxGeometry>
        </mxCell>
        <mxCell id="499783Nn_EMZo8-6FfQs-6" value="" style="edgeStyle=entityRelationEdgeStyle;fontSize=12;html=1;endArrow=ERmandOne;rounded=0;exitX=1;exitY=0.5;exitDx=0;exitDy=0;entryX=0;entryY=0.5;entryDx=0;entryDy=0;" parent="1" source="499783Nn_EMZo8-6FfQs-4" target="499783Nn_EMZo8-6FfQs-3" edge="1">
          <mxGeometry width="100" height="100" relative="1" as="geometry">
            <mxPoint x="370" y="370" as="sourcePoint" />
            <mxPoint x="470" y="270" as="targetPoint" />
          </mxGeometry>
        </mxCell>
      </root>
    </mxGraphModel>
  </diagram>
</mxfile>
